<svg width="64" height="64" xmlns="http://www.w3.org/2000/svg">
    <path stroke="null" fill="#F18D0E" d="m37.28677,4.19999l-2.61545,0c-1.98212,0 -3.80004,1.12594 -4.6914,2.89694l-5.03153,10.06306l-7.57661,10.10997c-0.68025,0.90309 -1.04384,2.0173 -1.04384,3.14324l0,20.95884c0,2.89694 2.3457,5.24264 5.24264,5.24264l3.99942,0l4.14016,2.06422c0.72717,0.36358 1.52471,0.55124 2.3457,0.55124l13.10074,0c1.74755,0 3.38954,-0.87964 4.36301,-2.33397l10.19207,-15.28225l2.25187,-2.25187c0.98519,-0.98519 1.53643,-2.31051 1.53643,-3.70621l0,-5.24264c0,-2.89694 -2.3457,-5.24264 -5.24264,-5.24264l-17.19399,0c0,0 1.46606,-7.51797 1.46606,-7.8581l0,-7.8581c0,-2.89694 -2.3457,-5.25437 -5.24264,-5.25437l0,0l0,0.00001z" />
    <polyline stroke="null" fill="#FFFFFF" points="37.286766052246094,9.44263069331646 37.286766052246094,17.312462732195854 34.67131423950195,30.413220331072807 58.25733947753906,30.413220331072807 58.25733947753906,35.65586559474468 55.63015365600586,38.27132122218609 45.156593322753906,53.99924556910992 32.044132232666016,53.99924556910992 26.80148696899414,51.372059747576714 21.570571899414062,51.372059747576714 21.570571899414062,30.413220331072807 29.428674697875977,19.927933618426323 34.67131423950195,9.44263069331646 37.286766052246094,9.44263069331646 " />
    <polygon stroke="null" fill="#20A64B" points="55.63015365600586,38.27132122218609 58.25733947753906,35.65586559474468 58.25733947753906,30.413220331072807 53.01469802856445,30.413220331072807 37.286766052246094,53.99924556910992 45.156593322753906,53.99924556910992 " />
    <path stroke="null" fill="#20A64B" d="m11.08528,25.17056l-10.48528,0l0,34.07131l10.48528,0c1.44261,0 2.61545,-1.18458 2.61545,-2.61545l0,-28.8404c0,-1.43088 -1.17285,-2.61545 -2.61545,-2.61545l0,-0.00001z" id="svg_4"/>
</svg>