<svg width="64" height="64" xmlns="http://www.w3.org/2000/svg">
    <path stroke="null" id="svg_1" d="m35.01948,16.13165l-1.50805,0c-1.14287,0 -2.19107,0.64921 -2.70502,1.67035l-2.90114,5.80228l-4.36861,5.82932c-0.39222,0.52071 -0.60187,1.16316 -0.60187,1.81237l0,12.0847c0,1.67035 1.35251,3.02286 3.02286,3.02286l2.30603,0l2.38719,1.19021c0.41928,0.20964 0.87914,0.31784 1.35251,0.31784l7.55378,0c1.00762,0 1.95438,-0.5072 2.51567,-1.34575l5.87667,-8.81163l1.29841,-1.29841c0.56805,-0.56805 0.88589,-1.33222 0.88589,-2.13697l0,-3.02286c0,-1.67035 -1.35251,-3.02286 -3.02286,-3.02286l-9.91391,0c0,0 0.84532,-4.3348 0.84532,-4.53092l0,-4.53092c0,-1.67035 -1.35251,-3.02963 -3.02286,-3.02963l0,0l0,0.00001l0,-0.00001l-0.00001,0.00001l-0.00001,0.00001z" fill="#F18D0E"/>
    <polygon stroke="null" id="svg_3" points="45.59613800048828,35.776915550231934 47.1109504699707,34.2688627243042 47.1109504699707,31.245993614196777 44.08808517456055,31.245993614196777 35.01948547363281,44.845505714416504 39.55716323852539,44.845505714416504 " fill="#20A64B"/>
    <path stroke="null" id="svg_4" d="m19.91192,28.22312l-6.04573,0l0,19.64524l6.04573,0c0.8318,0 1.50805,-0.68302 1.50805,-1.50805l0,-16.62915c0,-0.82503 -0.67626,-1.50805 -1.50805,-1.50805l0,-0.00001l0,0.00001l0,0.00001z" fill="#20A64B"/>
</svg>